<svg width="20" height="20" viewBox="0 0 20 20" fill="none" xmlns="http://www.w3.org/2000/svg">
<g id="material-symbols:image-outline">
<path id="Vector" d="M4.06271 17.2429C3.62547 17.2429 3.25103 17.0871 2.9394 16.7754C2.62777 16.4638 2.47222 16.0896 2.47275 15.6529V4.52322C2.47275 4.08598 2.62857 3.71154 2.9402 3.39991C3.25183 3.08828 3.626 2.93273 4.06271 2.93326H15.1924C15.6297 2.93326 16.0041 3.08908 16.3157 3.40071C16.6274 3.71234 16.7829 4.08651 16.7824 4.52322V15.6529C16.7824 16.0902 16.6266 16.4646 16.3149 16.7762C16.0033 17.0879 15.6291 17.2434 15.1924 17.2429H4.06271ZM4.06271 15.6529H15.1924V4.52322H4.06271V15.6529ZM4.85769 14.063H14.3974L11.4163 10.0881L9.03133 13.268L7.24262 10.883L4.85769 14.063Z" fill="black"/>
</g>
</svg>
